<?xml version="1.0" standalone="no"?>
<svg viewBox="0 0 200 200" xmlns="http://www.w3.org/2000/svg">
  <path fill="#FF0066" d="M32.7,-49.3C43.4,-50.5,53.7,-43.7,54.2,-34.2C54.7,-24.7,45.4,-12.3,36.7,-5C28,2.3,20,4.6,21.2,17.1C22.4,29.6,32.8,52.3,30.8,67.3C28.8,82.4,14.4,89.9,3.9,83.1C-6.6,76.3,-13.1,55.2,-18,41.8C-22.8,28.3,-25.9,22.5,-25.7,16.8C-25.5,11.2,-22,5.6,-21.2,0.4C-20.4,-4.7,-22.4,-9.4,-23.7,-17C-25,-24.6,-25.7,-35.2,-21.7,-37.8C-17.6,-40.5,-8.8,-35.3,1.1,-37.2C11,-39.1,22,-48.2,32.7,-49.3Z" transform="translate(100 100)" />
</svg>
